<?xml version="1.0" encoding="UTF-8"?>
<svg width="600" height="800" viewBox="0 0 600 800" xmlns="http://www.w3.org/2000/svg">
  <defs>
    <linearGradient id="bgGradient" x1="0%" y1="0%" x2="100%" y2="100%">
      <stop offset="0%" stop-color="#1D3557" />
      <stop offset="100%" stop-color="#457B9D" />
    </linearGradient>
    <linearGradient id="roadGradient" x1="0%" y1="0%" x2="0%" y2="100%">
      <stop offset="0%" stop-color="#D6D6D6" />
      <stop offset="100%" stop-color="#FFFFFF" />
    </linearGradient>
  </defs>
  
  <!-- Background -->
  <rect width="600" height="800" fill="url(#bgGradient)" />

  <!-- Abstract shapes -->
  <circle cx="120" cy="250" r="40" fill="#FFDD57" opacity="0.2" />
  <circle cx="480" cy="350" r="60" fill="#2EC4B6" opacity="0.2" />
  <circle cx="300" cy="150" r="80" fill="#FFDD57" opacity="0.1" />
  <circle cx="400" cy="650" r="100" fill="#457B9D" opacity="0.2" />

  <!-- Abstract road -->
  <path d="M0,550 C150,500 250,600 400,550 S550,450 600,500 L600,800 L0,800 Z" fill="url(#roadGradient)" opacity="0.1" />

  <!-- Truck -->
  <g transform="translate(150, 450) scale(0.5)">
    <rect x="60" y="80" width="280" height="100" rx="10" fill="#1D3557" />
    <rect x="250" y="100" width="150" height="80" rx="5" fill="#457B9D" />
    <rect x="30" y="180" width="320" height="40" rx="5" fill="#2EC4B6" />
    <circle cx="100" cy="220" r="25" fill="#D6D6D6" stroke="#1D3557" stroke-width="5" />
    <circle cx="100" cy="220" r="12" fill="#1D3557" />
    <circle cx="280" cy="220" r="25" fill="#D6D6D6" stroke="#1D3557" stroke-width="5" />
    <circle cx="280" cy="220" r="12" fill="#1D3557" />
    <rect x="60" y="120" width="40" height="30" rx="5" fill="#F1FAFB" />
  </g>

  <!-- Buildings -->
  <g transform="translate(400, 380) scale(0.4)">
    <rect x="0" y="0" width="60" height="180" fill="#457B9D" />
    <rect x="70" y="20" width="60" height="160" fill="#1D3557" />
    <rect x="140" y="-20" width="60" height="200" fill="#2EC4B6" />
    <rect x="210" y="40" width="60" height="140" fill="#FFDD57" />
    
    <!-- Windows -->
    <g fill="#F1FAFB">
      <rect x="10" y="20" width="15" height="15" />
      <rect x="35" y="20" width="15" height="15" />
      <rect x="10" y="50" width="15" height="15" />
      <rect x="35" y="50" width="15" height="15" />
      <rect x="10" y="80" width="15" height="15" />
      <rect x="35" y="80" width="15" height="15" />
      <rect x="10" y="110" width="15" height="15" />
      <rect x="35" y="110" width="15" height="15" />
      <rect x="10" y="140" width="15" height="15" />
      <rect x="35" y="140" width="15" height="15" />
      
      <rect x="80" y="40" width="15" height="15" />
      <rect x="105" y="40" width="15" height="15" />
      <rect x="80" y="70" width="15" height="15" />
      <rect x="105" y="70" width="15" height="15" />
      <rect x="80" y="100" width="15" height="15" />
      <rect x="105" y="100" width="15" height="15" />
      <rect x="80" y="130" width="15" height="15" />
      <rect x="105" y="130" width="15" height="15" />
      <rect x="80" y="160" width="15" height="15" />
      <rect x="105" y="160" width="15" height="15" />
      
      <rect x="150" y="0" width="15" height="15" />
      <rect x="175" y="0" width="15" height="15" />
      <rect x="150" y="30" width="15" height="15" />
      <rect x="175" y="30" width="15" height="15" />
      <rect x="150" y="60" width="15" height="15" />
      <rect x="175" y="60" width="15" height="15" />
      <rect x="150" y="90" width="15" height="15" />
      <rect x="175" y="90" width="15" height="15" />
      <rect x="150" y="120" width="15" height="15" />
      <rect x="175" y="120" width="15" height="15" />
      <rect x="150" y="150" width="15" height="15" />
      <rect x="175" y="150" width="15" height="15" />
      
      <rect x="220" y="60" width="15" height="15" />
      <rect x="245" y="60" width="15" height="15" />
      <rect x="220" y="90" width="15" height="15" />
      <rect x="245" y="90" width="15" height="15" />
      <rect x="220" y="120" width="15" height="15" />
      <rect x="245" y="120" width="15" height="15" />
      <rect x="220" y="150" width="15" height="15" />
      <rect x="245" y="150" width="15" height="15" />
    </g>
  </g>

  <!-- Dots pattern for data flow -->
  <g fill="#FFFFFF" opacity="0.5">
    <circle cx="50" cy="100" r="3" />
    <circle cx="70" cy="120" r="3" />
    <circle cx="90" cy="140" r="3" />
    <circle cx="110" cy="160" r="3" />
    <circle cx="130" cy="180" r="3" />
    <circle cx="150" cy="200" r="3" />
    
    <circle cx="350" cy="300" r="3" />
    <circle cx="370" cy="280" r="3" />
    <circle cx="390" cy="260" r="3" />
    <circle cx="410" cy="240" r="3" />
    <circle cx="430" cy="220" r="3" />
    <circle cx="450" cy="200" r="3" />
    
    <circle cx="550" cy="400" r="3" />
    <circle cx="530" cy="420" r="3" />
    <circle cx="510" cy="440" r="3" />
    <circle cx="490" cy="460" r="3" />
    <circle cx="470" cy="480" r="3" />
    <circle cx="450" cy="500" r="3" />
  </g>
</svg>