<?xml version="1.0" encoding="UTF-8"?>
<svg width="160" height="48" viewBox="0 0 160 48" xmlns="http://www.w3.org/2000/svg">
  <defs>
    <linearGradient id="logoGradient" x1="0%" y1="0%" x2="100%" y2="100%">
      <stop offset="0%" stop-color="#1D3557" />
      <stop offset="100%" stop-color="#457B9D" />
    </linearGradient>
  </defs>
  
  <!-- METIO Text -->
  <g fill="url(#logoGradient)">
    <!-- M -->
    <path d="M10,8 L10,40 L16,40 L16,20 L24,32 L32,20 L32,40 L38,40 L38,8 L32,8 L24,20 L16,8 Z" />
    
    <!-- E -->
    <path d="M44,8 L44,40 L66,40 L66,34 L50,34 L50,27 L62,27 L62,21 L50,21 L50,14 L66,14 L66,8 Z" />
    
    <!-- T -->
    <path d="M72,8 L72,14 L78,14 L78,40 L84,40 L84,14 L90,14 L90,8 Z" />
    
    <!-- I -->
    <path d="M96,8 L96,40 L102,40 L102,8 Z" />
    
    <!-- O -->
    <path d="M108,8 C102,8 96,14 96,24 C96,34 102,40 108,40 C114,40 120,34 120,24 C120,14 114,8 108,8 ZM108,34 C104,34 102,30 102,24 C102,18 104,14 108,14 C112,14 114,18 114,24 C114,30 112,34 108,34 Z" />
  </g>
  
  <!-- ERP Text -->
  <g fill="#2EC4B6">
    <!-- E -->
    <path d="M126,16 L126,40 L142,40 L142,36 L130,36 L130,30 L140,30 L140,26 L130,26 L130,20 L142,20 L142,16 Z" />
    
    <!-- R -->
    <path d="M144,16 L144,40 L148,40 L148,30 L152,30 C156,30 160,27 160,23 C160,19 156,16 152,16 Z M148,20 L152,20 C154,20 156,21 156,23 C156,25 154,26 152,26 L148,26 Z" />
    
    <!-- P -->
    <path d="M132,8 L132,14 C132,12 134,10 136,10 C138,10 140,12 140,14 L140,16 C140,18 138,20 136,20 L132,20 L132,24 L128,24 L128,8 Z M132,16 L136,16 C136,16 136,14 136,14 C136,14 136,14 136,14 L132,14 Z" />
  </g>
  
  <!-- Accent element -->
  <circle cx="124" cy="15" r="3" fill="#FFDD57" />
  
  <!-- Abstract connection lines -->
  <path d="M10,44 L120,44" stroke="#2EC4B6" stroke-width="0.8" stroke-dasharray="1,2" opacity="0.6"/>
  <path d="M60,4 L60,44" stroke="#2EC4B6" stroke-width="0.8" stroke-dasharray="1,2" opacity="0.6"/>
</svg>